<?xml version="1.0" encoding="UTF-8" standalone="no"?>
<!-- Created with Inkscape (http://www.inkscape.org/) -->

<svg
   xmlns:dc="http://purl.org/dc/elements/1.1/"
   xmlns:cc="http://creativecommons.org/ns#"
   xmlns:rdf="http://www.w3.org/1999/02/22-rdf-syntax-ns#"
   xmlns:svg="http://www.w3.org/2000/svg"
   xmlns="http://www.w3.org/2000/svg"
   xmlns:xlink="http://www.w3.org/1999/xlink"
   xmlns:sodipodi="http://sodipodi.sourceforge.net/DTD/sodipodi-0.dtd"
   xmlns:inkscape="http://www.inkscape.org/namespaces/inkscape"
   width="744.09448819"
   height="1052.3622047"
   id="svg2"
   version="1.1"
   inkscape:version="0.48.3.1 r9886"
   sodipodi:docname="launcher.svg">
  <defs
     id="defs4">
    <linearGradient
       id="linearGradient4548">
      <stop
         style="stop-color:#ebe79b;stop-opacity:1;"
         offset="0"
         id="stop4550" />
      <stop
         style="stop-color:#e0da62;stop-opacity:1;"
         offset="1"
         id="stop4552" />
    </linearGradient>
    <linearGradient
       id="linearGradient4516">
      <stop
         style="stop-color:#845037;stop-opacity:1;"
         offset="0"
         id="stop4518" />
      <stop
         style="stop-color:#1b110b;stop-opacity:1;"
         offset="1"
         id="stop4520" />
    </linearGradient>
    <linearGradient
       inkscape:collect="always"
       id="linearGradient4274">
      <stop
         style="stop-color:#ffffff;stop-opacity:1;"
         offset="0"
         id="stop4276" />
      <stop
         style="stop-color:#ffffff;stop-opacity:0;"
         offset="1"
         id="stop4278" />
    </linearGradient>
    <filter
       inkscape:collect="always"
       id="filter4242"
       x="-0.11513711"
       width="1.2302742"
       y="-0.67310917"
       height="2.3462183">
      <feGaussianBlur
         inkscape:collect="always"
         stdDeviation="15.625751"
         id="feGaussianBlur4244" />
    </filter>
    <radialGradient
       inkscape:collect="always"
       xlink:href="#linearGradient4274"
       id="radialGradient4462"
       gradientUnits="userSpaceOnUse"
       gradientTransform="matrix(1.693745,-0.84409809,0.63541187,1.2750006,-342.80954,158.30359)"
       cx="272.85376"
       cy="242.49467"
       fx="272.85376"
       fy="242.49467"
       r="162.85715" />
    <filter
       color-interpolation-filters="sRGB"
       inkscape:collect="always"
       id="filter4242-9"
       x="-0.11513711"
       width="1.2302742"
       y="-0.67310917"
       height="2.3462183">
      <feGaussianBlur
         inkscape:collect="always"
         stdDeviation="15.625751"
         id="feGaussianBlur4244-8" />
    </filter>
    <radialGradient
       inkscape:collect="always"
       xlink:href="#linearGradient4274-2"
       id="radialGradient4282-4"
       cx="272.85376"
       cy="242.49467"
       fx="272.85376"
       fy="242.49467"
       r="162.85715"
       gradientUnits="userSpaceOnUse"
       gradientTransform="matrix(1.693745,-0.84409809,0.63541187,1.2750006,-290.84619,-64.641042)" />
    <linearGradient
       inkscape:collect="always"
       id="linearGradient4274-2">
      <stop
         style="stop-color:#ffffff;stop-opacity:1;"
         offset="0"
         id="stop4276-7" />
      <stop
         style="stop-color:#ffffff;stop-opacity:0;"
         offset="1"
         id="stop4278-8" />
    </linearGradient>
    <radialGradient
       inkscape:collect="always"
       xlink:href="#linearGradient4516"
       id="radialGradient4522"
       cx="311.99716"
       cy="121.65913"
       fx="311.99716"
       fy="121.65913"
       r="88.457171"
       gradientTransform="matrix(1.6638875,1.4304383,-1.4606385,1.6990166,-29.280863,-533.93533)"
       gradientUnits="userSpaceOnUse" />
    <radialGradient
       inkscape:collect="always"
       xlink:href="#linearGradient4548"
       id="radialGradient4554"
       cx="275.95163"
       cy="-10.101666"
       fx="275.95163"
       fy="-10.101666"
       r="85.09222"
       gradientTransform="matrix(0.48526868,0.55345851,-0.91032,0.79816239,139.11133,-145.01767)"
       gradientUnits="userSpaceOnUse" />
    <radialGradient
       inkscape:collect="always"
       xlink:href="#linearGradient4548-0"
       id="radialGradient4554-8"
       cx="275.95163"
       cy="-10.101666"
       fx="275.95163"
       fy="-10.101666"
       r="85.092216"
       gradientTransform="matrix(0.48526868,0.55345851,-0.91032,0.79816239,139.11133,-145.01767)"
       gradientUnits="userSpaceOnUse" />
    <linearGradient
       id="linearGradient4548-0">
      <stop
         style="stop-color:#ebe79b;stop-opacity:1;"
         offset="0"
         id="stop4550-4" />
      <stop
         style="stop-color:#e0da62;stop-opacity:1;"
         offset="1"
         id="stop4552-0" />
    </linearGradient>
    <radialGradient
       inkscape:collect="always"
       xlink:href="#linearGradient4274"
       id="radialGradient4673"
       gradientUnits="userSpaceOnUse"
       gradientTransform="matrix(1.693745,-0.84409809,0.63541187,1.2750006,-282.78192,413.11435)"
       cx="272.85376"
       cy="242.49467"
       fx="272.85376"
       fy="242.49467"
       r="162.85715" />
    <radialGradient
       inkscape:collect="always"
       xlink:href="#linearGradient4274-6"
       id="radialGradient4673-7"
       gradientUnits="userSpaceOnUse"
       gradientTransform="matrix(1.693745,-0.84409809,0.63541187,1.2750006,-282.78192,413.11435)"
       cx="272.85376"
       cy="242.49467"
       fx="272.85376"
       fy="242.49467"
       r="162.85715" />
    <linearGradient
       inkscape:collect="always"
       id="linearGradient4274-6">
      <stop
         style="stop-color:#ffffff;stop-opacity:1;"
         offset="0"
         id="stop4276-5" />
      <stop
         style="stop-color:#ffffff;stop-opacity:0;"
         offset="1"
         id="stop4278-1" />
    </linearGradient>
    <radialGradient
       r="162.85715"
       fy="242.49467"
       fx="272.85376"
       cy="242.49467"
       cx="272.85376"
       gradientTransform="matrix(1.693745,-0.84409809,0.63541187,1.2750006,-282.78192,413.11434)"
       gradientUnits="userSpaceOnUse"
       id="radialGradient4721"
       xlink:href="#linearGradient4274-6"
       inkscape:collect="always" />
  </defs>
  <sodipodi:namedview
     id="base"
     pagecolor="#ffffff"
     bordercolor="#666666"
     borderopacity="1.0"
     inkscape:pageopacity="0.0"
     inkscape:pageshadow="2"
     inkscape:zoom="0.7"
     inkscape:cx="401.32592"
     inkscape:cy="425.92903"
     inkscape:document-units="px"
     inkscape:current-layer="layer1"
     showgrid="false"
     inkscape:window-width="1615"
     inkscape:window-height="734"
     inkscape:window-x="169"
     inkscape:window-y="173"
     inkscape:window-maximized="0" />
  <metadata
     id="metadata7">
    <rdf:RDF>
      <cc:Work
         rdf:about="">
        <dc:format>image/svg+xml</dc:format>
        <dc:type
           rdf:resource="http://purl.org/dc/dcmitype/StillImage" />
        <dc:title></dc:title>
      </cc:Work>
    </rdf:RDF>
  </metadata>
  <g
     inkscape:label="Layer 1"
     inkscape:groupmode="layer"
     id="layer1">
    <rect
       style="fill:#e9681d;fill-opacity:1;stroke:none"
       id="rect2985"
       width="325.71429"
       height="325.71429"
       x="185.74191"
       y="422.05673"
       rx="51.07539"
       ry="51.072422"
       inkscape:export-filename="/home/mhill/projects/opnet_saas/mobile_instrumentation/maiti_android/src/DataGenerator/res/drawable-mdpi/ic_launcher.png"
       inkscape:export-xdpi="11.907217"
       inkscape:export-ydpi="11.907217" />
    <path
       style="fill:#000000;fill-opacity:1;stroke:#000000;stroke-width:7.66400003;stroke-linecap:butt;stroke-linejoin:round;stroke-miterlimit:4;stroke-opacity:1;stroke-dasharray:none"
       d="m 379.23291,447.78656 -88.18423,25.38083 -9.87957,-14.4368 -12.14154,8.74857 7.98348,13.67172 -61.20671,68.82429 c 23.76327,-7.25848 70.66676,-25.67538 85.88899,-35.36019 l 32.9984,51.52674 -55.7846,0.53223 c -5.44156,23.69115 -8.94708,44.52696 0.76508,68.82429 8.55912,16.3775 19.56679,35.68732 45.60565,46.76991 0.76698,3.03792 -9.87955,18.22896 -9.87955,18.22896 0,0 9.36947,14.24821 41.8135,14.47006 32.44813,0.22188 45.60565,-12.17481 45.60565,-12.17481 0,0 -11.10841,-17.96992 -10.64465,-20.52421 25.08725,-13.35914 27.63554,-14.91598 46.00483,-51.32715 11.13833,-29.52667 1.89608,-65.76395 1.89608,-65.76395 l -95.80181,0.89815 -35.32692,-55.45196 c 15.16301,-8.07206 52.69721,-36.52945 70.28792,-62.83668 z"
       id="path4173-1"
       inkscape:connector-curvature="0"
       inkscape:export-filename="/home/mhill/projects/opnet_saas/mobile_instrumentation/maiti_android/src/DataGenerator/res/drawable-mdpi/ic_launcher.png"
       inkscape:export-xdpi="11.907217"
       inkscape:export-ydpi="11.907217" />
    <path
       style="fill:#ffffff;fill-opacity:1;stroke:#ffffff;stroke-width:6.76399994;stroke-linecap:butt;stroke-linejoin:round;stroke-miterlimit:4;stroke-opacity:1;stroke-dasharray:none"
       d="m 381.40972,449.50355 -88.18423,25.38083 -9.87957,-14.4368 -12.14154,8.74857 7.98348,13.67172 -61.20671,68.82429 c 23.76327,-7.25848 70.66676,-25.67538 85.88899,-35.36019 l 32.9984,51.52674 -55.7846,0.53223 c -5.44156,23.69115 -8.94708,44.52696 0.76508,68.82429 8.55912,16.3775 19.56679,35.68732 45.60565,46.76991 0.76698,3.03792 -9.87955,18.22896 -9.87955,18.22896 0,0 9.36947,14.24821 41.8135,14.47006 32.44813,0.22188 45.60565,-12.17481 45.60565,-12.17481 0,0 -11.10841,-17.96992 -10.64465,-20.52421 25.08725,-13.35914 27.63554,-14.91598 46.00483,-51.32715 11.13833,-29.52667 1.89608,-65.76395 1.89608,-65.76395 l -95.80181,0.89815 -35.32692,-55.45196 c 15.16301,-8.07206 52.69721,-36.52945 70.28792,-62.83668 z"
       id="path4173"
       inkscape:connector-curvature="0"
       inkscape:export-filename="/home/mhill/projects/opnet_saas/mobile_instrumentation/maiti_android/src/DataGenerator/res/drawable-mdpi/ic_launcher.png"
       inkscape:export-xdpi="11.907217"
       inkscape:export-ydpi="11.907217" />
    <path
       style="opacity:0.18803418;fill:#ffffff;fill-opacity:1;stroke:none;filter:url(#filter4242)"
       d="M 207.34375 698.40625 C 199.79302 698.40625 192.57245 698.66844 185.8125 699.125 C 187.06778 726.28662 209.3282 747.78125 236.8125 747.78125 L 460.375 747.78125 C 488.03625 747.78125 510.416 726.00307 511.40625 698.59375 C 507.7663 698.47219 504.03673 698.40625 500.21875 698.40625 L 207.34375 698.40625 z "
       id="rect2985-1"
       inkscape:export-filename="/home/mhill/projects/opnet_saas/mobile_instrumentation/maiti_android/src/DataGenerator/res/drawable-mdpi/ic_launcher.png"
       inkscape:export-xdpi="11.907217"
       inkscape:export-ydpi="11.907217" />
    <rect
       style="fill:#e9681d;fill-opacity:1;stroke:none"
       id="rect2985-0"
       width="325.71429"
       height="325.71429"
       x="177.67763"
       y="-55.698662"
       rx="51.07539"
       ry="51.072422" />
    <rect
       style="opacity:0.38888891;fill:url(#radialGradient4282-4);fill-opacity:1;stroke:none"
       id="rect2985-7-0"
       width="325.71429"
       height="325.71429"
       x="177.67763"
       y="-55.698662"
       rx="51.07539"
       ry="51.072422" />
    <rect
       style="opacity:0.18803418;fill:#ffffff;fill-opacity:1;stroke:none;filter:url(#filter4242-9)"
       id="rect2985-1-6"
       width="325.71429"
       height="55.714294"
       x="125.71429"
       y="439.50504"
       rx="51.07539"
       ry="8.7360735"
       transform="matrix(1.3100888,0,0,1.5302603,-32.339918,-451.92183)" />
    <path
       style="fill:#000000;fill-opacity:1;stroke:none"
       d="m 374.96876,-32.995537 a 3.3823382,3.3823382 0 0 0 -0.46875,0.125 l -85.8125,24.6875013 -8.53125,-12.4062513 a 3.3823382,3.3823382 0 0 0 -4.75,-0.84375 l -12.15625,8.75 a 3.3823382,3.3823382 0 0 0 -0.9375,4.4687513 l 6.75,11.53125 -59.5625,66.9999987 a 3.3823382,3.3823382 0 0 0 3.5,5.5 c 22.71674,-6.93882 64.78446,-23.29708 83.1875,-33.8125 l 0.125,-0.1875 0.375,-0.1875 26.9375,42.0625 -2.34375,0.03125 -0.0625,-0.0625 -46.65625,0.4375 a 3.3823382,3.3823382 0 0 0 -3.28125,2.625 c -5.46747,23.803927 -9.1261,45.667197 0.9375,70.843737 a 3.3823382,3.3823382 0 0 0 0.125,0.3125 c 8.3097,15.90025 19.59474,35.35175 44.6875,47.03125 -0.12683,0.29913 -0.17572,0.49432 -0.34375,0.84375 -0.80073,1.66519 -2.03212,3.7787 -3.28125,5.8125 -2.49826,4.0676 -5.09375,7.8125 -5.09375,7.8125 a 3.3823382,3.3823382 0 0 0 -0.0625,3.78125 c 0,0 2.98297,4.36541 9.90625,8.25 6.92328,3.88459 18.00391,7.63571 34.71875,7.75 16.65785,0.11391 28.52036,-3.00483 36.28125,-6.25 7.76089,-3.24517 11.65625,-6.84375 11.65625,-6.84375 a 3.3823382,3.3823382 0 0 0 0.5625,-4.25 c 0,0 -2.76002,-4.44945 -5.4375,-9.1875 -1.33874,-2.36903 -2.64741,-4.80281 -3.5625,-6.71875 -0.23872,-0.4998 -0.35668,-0.81003 -0.53125,-1.21875 10.84909,-5.80085 18.03354,-9.81105 24.03125,-16.34375 6.50537,-7.08564 11.79576,-16.81807 21,-35.0625 a 3.3823382,3.3823382 0 0 0 0.15625,-0.34375 c 11.67892,-30.95971 2,-67.781237 2,-67.781237 a 3.3823382,3.3823382 0 0 0 -3.3125,-2.5625 l -93.90625,0.875 -0.0312,-0.03125 -0.625,0 -31.28125,-49.0625 0,-0.03125 c 17.27016,-10.0875 51.20528,-36.4161127 68.375,-62.09375 a 3.3823382,3.3823382 0 0 0 -2.9375,-5.25 3.3823382,3.3823382 0 0 0 -0.34375,0 z"
       id="path4412-6"
       inkscape:connector-curvature="0" />
    <path
       style="fill:#f3d5bb;fill-opacity:1;stroke:none"
       d="m 311.17392,35.357143 -12.59382,7.021852 -0.11581,0.177022 c 0.14399,-0.08385 0.40926,-0.182488 0.55008,-0.265533 l 25.91142,41.246005 -2.77932,0.0295 0.0579,0.05901 18.99206,-0.265532 -30.02251,-48.002325 z"
       id="path4412"
       inkscape:connector-curvature="0" />
    <path
       style="fill:url(#radialGradient4522);fill-opacity:1;stroke:none"
       d="m 344.58929,85.190743 -20.5,0.28125 -0.0625,-0.0625 -46.65625,0.4375 a 3.3823382,3.3823382 0 0 0 -3.28125,2.625 c -5.46747,23.803937 -9.1261,45.667207 0.9375,70.843747 a 3.3823382,3.3823382 0 0 0 0.125,0.3125 c 8.3097,15.90025 19.59474,35.35175 44.6875,47.03125 -0.12683,0.29913 -0.17572,0.49432 -0.34375,0.84375 -0.80073,1.66519 -2.03212,3.7787 -3.28125,5.8125 -2.49826,4.0676 -5.09375,7.8125 -5.09375,7.8125 a 3.3823382,3.3823382 0 0 0 -0.0625,3.78125 c 0,0 2.98297,4.36541 9.90625,8.25 6.92328,3.88459 18.00391,7.63571 34.71875,7.75 16.65785,0.11391 28.52036,-3.00483 36.28125,-6.25 7.76089,-3.24517 11.65625,-6.84375 11.65625,-6.84375 a 3.3823382,3.3823382 0 0 0 0.5625,-4.25 c 0,0 -2.76002,-4.44945 -5.4375,-9.1875 -1.33874,-2.36903 -2.64741,-4.80281 -3.5625,-6.71875 -0.23872,-0.4998 -0.35668,-0.81003 -0.53125,-1.21875 10.84909,-5.80085 18.03354,-9.81105 24.03125,-16.34375 6.50537,-7.08564 11.79576,-16.81807 21,-35.0625 a 3.3823382,3.3823382 0 0 0 0.15625,-0.34375 c 11.67892,-30.95971 2,-67.781247 2,-67.781247 a 3.3823382,3.3823382 0 0 0 -3.3125,-2.5625 l -93.90625,0.875 -0.0312,-0.0312 z"
       id="path4414"
       inkscape:connector-curvature="0" />
    <path
       style="fill:#000000;fill-opacity:1;stroke:none"
       d="M 377.03125 -33.1875 C 374.05836 -33.1875 371.62369 -30.757569 371.375 -27.6875 L 292.5 -5.71875 L 284.21875 -18.59375 A 3.3738801 3.4778694 0.00039496597 0 0 279.5 -19.53125 L 267.21875 -10.75 A 3.3738801 3.4778694 0.00039496597 0 0 266.21875 -6.15625 L 272.75 5.78125 L 216.96875 68.34375 C 216.17225 67.894918 215.24721 67.65625 214.28125 67.65625 C 211.14311 67.65625 208.59375 70.343767 208.59375 73.65625 C 208.59375 76.968733 211.14311 79.65625 214.28125 79.65625 C 215.12463 79.65625 215.93655 79.47295 216.65625 79.125 C 239.65319 72.190056 280.86476 56.356536 299.125 46 L 299.25 45.8125 L 312.9375 38.40625 L 312.90625 38.375 C 330.30363 28.284403 364.62337 1.7454542 382.1875 -24.375 A 3.3738801 3.4778694 0.00039496597 0 0 382.71875 -27.03125 A 3.3738801 3.4778694 0.00039496597 0 0 382.71875 -27.0625 C 382.71954 -27.103604 382.71875 -27.146197 382.71875 -27.1875 C 382.71875 -30.499983 380.16939 -33.1875 377.03125 -33.1875 z "
       id="path4173-8-7" />
    <path
       style="fill:url(#radialGradient4554);fill-opacity:1;stroke:none"
       d="m 378.09437,-31.260243 a 3.3823382,3.3823382 0 0 0 -0.8125,0.125 l -85.8125,24.6874998 -8.53125,-12.4062498 a 3.3823382,3.3823382 0 0 0 -4.75,-0.84375 l -12.15625,8.75 a 3.3823382,3.3823382 0 0 0 -0.9375,4.4687498 l 6.75,11.531246 -59.5625,67.0000002 a 3.3823382,3.3823382 0 0 0 3.5,5.5 c 22.71674,-6.93882 64.78446,-23.29708 83.1875,-33.8125 l 0.125,-0.1875 13.59375,-7.4375 -0.0312,-0.0312 c 17.27016,-10.0875 51.20528,-36.41611019 68.375,-62.093746 a 3.3823382,3.3823382 0 0 0 -2.9375,-5.25 z"
       id="path4173-8"
       inkscape:connector-curvature="0" />
    <rect
       style="opacity:0.38888891;fill:url(#radialGradient4673);fill-opacity:1;stroke:none"
       id="rect2985-7"
       width="325.71429"
       height="325.71429"
       x="185.74191"
       y="422.05673"
       rx="51.07539"
       ry="51.072422"
       inkscape:export-filename="/home/mhill/projects/opnet_saas/mobile_instrumentation/maiti_android/src/DataGenerator/res/drawable-mdpi/ic_launcher.png"
       inkscape:export-xdpi="11.907217"
       inkscape:export-ydpi="11.907217" />
  </g>
</svg>
